<svg xmlns="http://www.w3.org/2000/svg" xmlns:xlink="http://www.w3.org/1999/xlink" width="357" zoomAndPan="magnify" viewBox="0 0 267.75 124.499996" height="166" preserveAspectRatio="xMidYMid meet" version="1.0"><defs><g/></defs><g fill="#000000" fill-opacity="1"><g transform="translate(0.485416, 95.667461)"><g><path d="M 16.34375 0.9375 C 13.289062 0.9375 10.910156 0.0859375 9.203125 -1.609375 C 7.503906 -3.304688 6.65625 -5.753906 6.65625 -8.953125 L 6.65625 -63.484375 C 6.65625 -66.671875 7.503906 -69.113281 9.203125 -70.8125 C 10.910156 -72.507812 13.394531 -73.359375 16.65625 -73.359375 L 51.296875 -73.359375 C 53.796875 -73.359375 55.671875 -72.734375 56.921875 -71.484375 C 58.171875 -70.242188 58.796875 -68.441406 58.796875 -66.078125 C 58.796875 -63.648438 58.171875 -61.796875 56.921875 -60.515625 C 55.671875 -59.234375 53.796875 -58.59375 51.296875 -58.59375 L 25.8125 -58.59375 L 25.8125 -43.8125 L 49.015625 -43.8125 C 51.441406 -43.8125 53.296875 -43.1875 54.578125 -41.9375 C 55.859375 -40.6875 56.5 -38.882812 56.5 -36.53125 C 56.5 -34.101562 55.859375 -32.265625 54.578125 -31.015625 C 53.296875 -29.765625 51.441406 -29.140625 49.015625 -29.140625 L 25.8125 -29.140625 L 25.8125 -8.953125 C 25.8125 -2.359375 22.65625 0.9375 16.34375 0.9375 Z M 16.34375 0.9375 "/></g></g></g><g fill="#000000" fill-opacity="1"><g transform="translate(64.895661, 95.667461)"><g><path d="M 14.5625 0.9375 C 11.65625 0.9375 9.398438 0.0703125 7.796875 -1.65625 C 6.203125 -3.394531 5.40625 -5.894531 5.40625 -9.15625 L 5.40625 -42.046875 C 5.40625 -45.304688 6.203125 -47.800781 7.796875 -49.53125 C 9.398438 -51.269531 11.65625 -52.140625 14.5625 -52.140625 C 17.550781 -52.140625 19.859375 -51.269531 21.484375 -49.53125 C 23.117188 -47.800781 23.9375 -45.304688 23.9375 -42.046875 L 23.9375 -9.15625 C 23.9375 -5.894531 23.132812 -3.394531 21.53125 -1.65625 C 19.9375 0.0703125 17.613281 0.9375 14.5625 0.9375 Z M 14.5625 -59.53125 C 11.300781 -59.53125 8.785156 -60.289062 7.015625 -61.8125 C 5.253906 -63.34375 4.375 -65.5625 4.375 -68.46875 C 4.375 -71.3125 5.253906 -73.492188 7.015625 -75.015625 C 8.785156 -76.546875 11.300781 -77.3125 14.5625 -77.3125 C 17.96875 -77.3125 20.535156 -76.546875 22.265625 -75.015625 C 24.003906 -73.492188 24.875 -71.3125 24.875 -68.46875 C 24.875 -65.5625 24.003906 -63.34375 22.265625 -61.8125 C 20.535156 -60.289062 17.96875 -59.53125 14.5625 -59.53125 Z M 14.5625 -59.53125 "/></g></g></g><g fill="#000000" fill-opacity="1"><g transform="translate(94.135028, 95.667461)"><g><path d="M 11.03125 0 C 9.15625 0 7.628906 -0.46875 6.453125 -1.40625 C 5.273438 -2.34375 4.476562 -3.539062 4.0625 -5 C 3.644531 -6.457031 3.660156 -8.035156 4.109375 -9.734375 C 4.554688 -11.429688 5.441406 -13.007812 6.765625 -14.46875 L 30.90625 -41.734375 L 30.90625 -37.5625 L 10.296875 -37.5625 C 8.078125 -37.5625 6.378906 -38.148438 5.203125 -39.328125 C 4.023438 -40.515625 3.4375 -42.21875 3.4375 -44.4375 C 3.4375 -46.65625 4.023438 -48.335938 5.203125 -49.484375 C 6.378906 -50.628906 8.078125 -51.203125 10.296875 -51.203125 L 39.75 -51.203125 C 41.832031 -51.203125 43.53125 -50.734375 44.84375 -49.796875 C 46.164062 -48.859375 47.050781 -47.660156 47.5 -46.203125 C 47.957031 -44.742188 47.976562 -43.179688 47.5625 -41.515625 C 47.144531 -39.859375 46.273438 -38.300781 44.953125 -36.84375 L 20.1875 -8.84375 L 20.1875 -13.625 L 42.359375 -13.625 C 47.003906 -13.625 49.328125 -11.375 49.328125 -6.875 C 49.328125 -4.644531 48.734375 -2.941406 47.546875 -1.765625 C 46.367188 -0.585938 44.640625 0 42.359375 0 Z M 11.03125 0 "/></g></g></g><g fill="#000000" fill-opacity="1"><g transform="translate(144.809655, 95.667461)"><g><path d="M 14.5625 0.9375 C 11.65625 0.9375 9.398438 0.140625 7.796875 -1.453125 C 6.203125 -3.046875 5.40625 -5.367188 5.40625 -8.421875 L 5.40625 -64.9375 C 5.40625 -67.988281 6.203125 -70.3125 7.796875 -71.90625 C 9.398438 -73.5 11.65625 -74.296875 14.5625 -74.296875 C 17.550781 -74.296875 19.859375 -73.5 21.484375 -71.90625 C 23.117188 -70.3125 23.9375 -67.988281 23.9375 -64.9375 L 23.9375 -30.59375 L 24.140625 -30.59375 L 36.84375 -46 C 38.570312 -48.082031 40.179688 -49.625 41.671875 -50.625 C 43.171875 -51.632812 45.203125 -52.140625 47.765625 -52.140625 C 50.328125 -52.140625 52.300781 -51.515625 53.6875 -50.265625 C 55.082031 -49.015625 55.8125 -47.453125 55.875 -45.578125 C 55.945312 -43.703125 55.1875 -41.828125 53.59375 -39.953125 L 39.859375 -23.71875 L 39.859375 -30.171875 L 55.25 -10.828125 C 56.78125 -8.878906 57.40625 -6.984375 57.125 -5.140625 C 56.851562 -3.304688 55.96875 -1.832031 54.46875 -0.71875 C 52.976562 0.382812 51.09375 0.9375 48.8125 0.9375 C 46.03125 0.9375 43.804688 0.4375 42.140625 -0.5625 C 40.472656 -1.570312 38.8125 -3.15625 37.15625 -5.3125 L 24.140625 -21.328125 L 23.9375 -21.328125 L 23.9375 -8.421875 C 23.9375 -2.179688 20.8125 0.9375 14.5625 0.9375 Z M 14.5625 0.9375 "/></g></g></g><g fill="#000000" fill-opacity="1"><g transform="translate(204.432905, 95.667461)"><g><path d="M 31.328125 1.140625 C 25.640625 1.140625 20.675781 0.0664062 16.4375 -2.078125 C 12.207031 -4.234375 8.910156 -7.320312 6.546875 -11.34375 C 4.191406 -15.363281 3.015625 -20.113281 3.015625 -25.59375 C 3.015625 -29.757812 3.671875 -33.488281 4.984375 -36.78125 C 6.304688 -40.082031 8.21875 -42.894531 10.71875 -45.21875 C 13.21875 -47.539062 16.203125 -49.304688 19.671875 -50.515625 C 23.140625 -51.734375 27.023438 -52.34375 31.328125 -52.34375 C 37.015625 -52.34375 41.972656 -51.265625 46.203125 -49.109375 C 50.429688 -46.960938 53.707031 -43.894531 56.03125 -39.90625 C 58.363281 -35.914062 59.53125 -31.144531 59.53125 -25.59375 C 59.53125 -21.5 58.867188 -17.785156 57.546875 -14.453125 C 56.222656 -11.128906 54.332031 -8.304688 51.875 -5.984375 C 49.414062 -3.660156 46.429688 -1.890625 42.921875 -0.671875 C 39.421875 0.535156 35.554688 1.140625 31.328125 1.140625 Z M 31.328125 -12.484375 C 33.191406 -12.484375 34.851562 -12.953125 36.3125 -13.890625 C 37.769531 -14.828125 38.894531 -16.25 39.6875 -18.15625 C 40.488281 -20.0625 40.890625 -22.539062 40.890625 -25.59375 C 40.890625 -30.25 39.988281 -33.597656 38.1875 -35.640625 C 36.382812 -37.691406 34.097656 -38.71875 31.328125 -38.71875 C 29.453125 -38.71875 27.785156 -38.265625 26.328125 -37.359375 C 24.867188 -36.453125 23.722656 -35.046875 22.890625 -33.140625 C 22.054688 -31.234375 21.640625 -28.71875 21.640625 -25.59375 C 21.640625 -21.019531 22.539062 -17.691406 24.34375 -15.609375 C 26.15625 -13.523438 28.484375 -12.484375 31.328125 -12.484375 Z M 31.328125 -12.484375 "/></g></g></g></svg>